<svg width="32" height="32" viewBox="0 0 32 32" fill="none" xmlns="http://www.w3.org/2000/svg">
<circle cx="16" cy="16" r="16" fill="url(#paint0_linear_114_1063)"/>
<path d="M11.8672 11.018C13.0805 11.018 14.0885 11.326 14.8912 11.942C15.6939 12.558 16.2352 13.3933 16.5152 14.448H14.8212C14.5879 13.8507 14.2145 13.3793 13.7012 13.034C13.1972 12.6793 12.5765 12.502 11.8392 12.502C11.2512 12.502 10.7239 12.6467 10.2572 12.936C9.79988 13.2253 9.43588 13.6407 9.16521 14.182C8.90388 14.714 8.77321 15.3393 8.77321 16.058C8.77321 16.7673 8.90388 17.3927 9.16521 17.934C9.43588 18.466 9.79988 18.8767 10.2572 19.166C10.7239 19.4553 11.2512 19.6 11.8392 19.6C12.5765 19.6 13.1972 19.4273 13.7012 19.082C14.2145 18.7273 14.5879 18.256 14.8212 17.668H16.5152C16.2352 18.7227 15.6939 19.558 14.8912 20.174C14.0885 20.7807 13.0805 21.084 11.8672 21.084C10.9339 21.084 10.1079 20.874 9.38921 20.454C8.67054 20.0247 8.11521 19.432 7.72321 18.676C7.33121 17.9107 7.13521 17.038 7.13521 16.058C7.13521 15.078 7.33121 14.21 7.72321 13.454C8.11521 12.6887 8.67054 12.0913 9.38921 11.662C10.1079 11.2327 10.9339 11.018 11.8672 11.018ZM23.3016 21L20.8376 17.052H19.7036V21H18.1076V11.116H21.5936C22.7229 11.116 23.5769 11.3913 24.1556 11.942C24.7436 12.4927 25.0376 13.2207 25.0376 14.126C25.0376 14.9007 24.8183 15.5353 24.3796 16.03C23.9503 16.5247 23.3249 16.842 22.5036 16.982L25.0936 21H23.3016ZM19.7036 15.918H21.4676C22.7556 15.918 23.3996 15.3487 23.3996 14.21C23.3996 13.6687 23.2409 13.2487 22.9236 12.95C22.6156 12.642 22.1303 12.488 21.4676 12.488H19.7036V15.918Z" fill="white"/>
<defs>
<linearGradient id="paint0_linear_114_1063" x1="0" y1="0" x2="32" y2="32" gradientUnits="userSpaceOnUse">
<stop stop-color="#72CBEE"/>
<stop offset="1" stop-color="#1BA8DF"/>
</linearGradient>
</defs>
</svg>
